<svg xmlns="http://www.w3.org/2000/svg" xmlns:xlink="http://www.w3.org/1999/xlink" width="47" height="52" viewBox="0 0 47 52"><defs><path id="kp7ha" d="M800.15 282.58v1.2a1.05 1.05 0 1 1-2.1 0v-1.2a1.05 1.05 0 1 1 2.1 0zm12.03 0v1.2a1.05 1.05 0 1 1-2.11 0v-1.2a1.05 1.05 0 1 1 2.1 0zm-2.8 8.06a6.7 6.7 0 0 1-4.27 1.45 6.7 6.7 0 0 1-4.28-1.45 1.06 1.06 0 0 1-.14-1.49 1.05 1.05 0 0 1 1.48-.14c.74.61 1.81.97 2.94.97 1.12 0 2.2-.36 2.94-.97.45-.37 1.11-.3 1.48.14.37.46.3 1.12-.14 1.5zM789.33 310h-2.1a5.86 5.86 0 0 1 3.68-5.47l8.34-3.35v-3.11c-4.65-2.11-7.99-6.66-8.38-12.02h-.19a3.47 3.47 0 0 1-1.05-6.78v-2.88h-8.57a1.05 1.05 0 0 1 0-2.11h8.61A14.32 14.32 0 0 1 803.91 261h2.4c7.88 0 14.28 6.43 14.28 14.34v3.93a3.48 3.48 0 0 1-1.05 6.78h-.19a14.36 14.36 0 0 1-8.38 12.02v3.11l8.34 3.35A5.86 5.86 0 0 1 823 310h-2.1c0-1.55-.93-2.93-2.37-3.5l-7.57-3.04a5.88 5.88 0 0 1-5.85 5.53 5.88 5.88 0 0 1-5.85-5.53l-7.58 3.03a3.76 3.76 0 0 0-2.36 3.5zm2.45-35.72h26.67a12.21 12.21 0 0 0-12.13-11.17h-2.4c-6.36 0-11.6 4.92-12.14 11.17zm24.3 2.11l.43 1.7c.15.6.69 1.02 1.31 1.02h.68v-2.72zm-24.34 2.72h.67c.63 0 1.17-.42 1.32-1.03l.42-1.69h-2.41zm17.14 19.72a14.22 14.22 0 0 1-7.52 0v4.28a3.77 3.77 0 0 0 3.76 3.77c2.07 0 3.76-1.7 3.76-3.77v-4.28zm8.42-13.83c0-.59.47-1.06 1.05-1.06h1.2a1.36 1.36 0 0 0 0-2.72h-1.73a3.46 3.46 0 0 1-3.35-2.63l-.55-2.2h-17.6l-.55 2.2a3.46 3.46 0 0 1-3.36 2.63h-1.73a1.36 1.36 0 0 0 0 2.72h1.2c.59 0 1.06.47 1.06 1.06 0 6.74 5.46 12.22 12.18 12.22 6.71 0 12.18-5.48 12.18-12.22z"/></defs><g><g transform="translate(-778 -259)"><use xlink:href="#kp7ha"/></g></g></svg>